<svg width="192" height="192" viewBox="0 0 192 192" fill="none" xmlns="http://www.w3.org/2000/svg">
  <rect width="192" height="192" rx="24" fill="#2563eb"/>
  <circle cx="96" cy="96" r="60" fill="white" opacity="0.2"/>
  <path d="M96 36C70.595 36 50 56.595 50 82C50 107.405 70.595 128 96 128C121.405 128 142 107.405 142 82C142 56.595 121.405 36 96 36ZM96 116C78.888 116 65 102.112 65 85C65 67.888 78.888 54 96 54C113.112 54 127 67.888 127 85C127 102.112 113.112 116 96 116Z" fill="white"/>
  <path d="M96 64C88.832 64 83 69.832 83 77C83 84.168 88.832 90 96 90C103.168 90 109 84.168 109 77C109 69.832 103.168 64 96 64Z" fill="#2563eb"/>
  <path d="M76 96H116V106H76V96Z" fill="white"/>
  <path d="M86 106H106V116H86V106Z" fill="white"/>
</svg>